<?xml version="1.0" encoding="utf-8"?>
<!-- Generator: Adobe Illustrator 16.0.0, SVG Export Plug-In . SVG Version: 6.00 Build 0)  -->
<!DOCTYPE svg PUBLIC "-//W3C//DTD SVG 1.1//EN" "http://www.w3.org/Graphics/SVG/1.1/DTD/svg11.dtd">
<svg version="1.1" id="图层_1" xmlns="http://www.w3.org/2000/svg" xmlns:xlink="http://www.w3.org/1999/xlink" x="0px" y="0px"
	 width="36px" height="36px" viewBox="0 0 36 36" enable-background="new 0 0 36 36" xml:space="preserve">
<g>
	<g transform="scale(0.1953125, 0.1953125)">
		<path fill="#FF8680" d="M157.985,21.945H26.33C11.79,21.945,0,33.735,0,48.275v6.31h184.32v-6.31
			C184.32,33.735,172.53,21.945,157.985,21.945L157.985,21.945z M0,136.045c0,14.54,11.79,26.33,26.33,26.33h131.655
			c14.545,0,26.335-11.79,26.335-26.33V72.14H0V136.045L0,136.045z M122.355,89.045l15.895,18.94l15.895-18.94h12.51l-22.095,26.34
			h13.41c1.23,0,2.23,0.945,2.23,2.105v4.57c0,1.165-1,2.1-2.23,2.1h-15.32v4.295h15.32c1.23,0,2.23,0.94,2.23,2.105v4.57
			c0,1.16-1,2.095-2.23,2.095h-15.32v6.58c0,1.235-0.945,2.235-2.095,2.235h-4.575c-1.16,0-2.105-1-2.105-2.235v-6.58H118.55
			c-1.235,0-2.235-0.945-2.235-2.095v-4.57c0-1.165,1-2.105,2.235-2.105h15.325v-4.295H118.54c-1.235,0-2.235-0.945-2.235-2.1v-4.57
			c0-1.16,1-2.105,2.235-2.105h13.42l-22.105-26.34H122.355L122.355,89.045z"/>
	</g>
</g>
</svg>
