<?xml version="1.0" encoding="utf-8"?>
<!-- Generator: Adobe Illustrator 16.0.0, SVG Export Plug-In . SVG Version: 6.00 Build 0)  -->
<!DOCTYPE svg PUBLIC "-//W3C//DTD SVG 1.1//EN" "http://www.w3.org/Graphics/SVG/1.1/DTD/svg11.dtd">
<svg version="1.1" id="图层_1" xmlns="http://www.w3.org/2000/svg" xmlns:xlink="http://www.w3.org/1999/xlink" x="0px" y="0px"
	 width="60px" height="60px" viewBox="0 0 60 60" enable-background="new 0 0 60 60" xml:space="preserve">
<circle fill="#C50202" cx="30" cy="30" r="30"/>
<g>
	<g transform="scale(0.1953125, 0.1953125)">
		<path fill="#FFFFFF" d="M143.537,117.835c1.455,2.485,2.202,5.395,2.202,8.725c0,5.09-1.517,9.35-4.555,12.75
			c-3.048,3.395-7.422,5.42-13.175,6.02v8.74h-7.307v-8.7c-9.56-0.99-15.49-6.55-17.767-16.675l11.307-2.96
			c1.045,6.365,4.505,9.565,10.397,9.565c2.755,0,4.785-0.69,6.085-2.05c1.3-1.38,1.955-3.012,1.955-4.94
			c0-2.007-0.655-3.515-1.955-4.53c-1.288-1.03-4.182-2.325-8.647-3.912c-4.015-1.402-7.167-2.78-9.43-4.157
			c-2.252-1.347-4.092-3.255-5.507-5.71c-1.41-2.457-2.107-5.327-2.107-8.57c0-4.272,1.272-8.13,3.785-11.537
			c2.53-3.425,6.482-5.52,11.897-6.282v-6.74h7.307v6.74c8.172,0.98,13.472,5.597,15.892,13.872l-10.102,4.14
			c-1.967-5.67-4.99-8.515-9.12-8.515c-2.062,0-3.722,0.63-4.952,1.905c-1.262,1.272-1.89,2.805-1.89,4.605
			c0,1.84,0.603,3.242,1.812,4.235c1.205,0.978,3.78,2.197,7.74,3.637c4.34,1.582,7.762,3.102,10.217,4.492
			C140.092,113.397,142.045,115.352,143.537,117.835L143.537,117.835L143.537,117.835L143.537,117.835L143.537,117.835z"/>
	</g>
	<g>
		<path fill="#FFFFFF" d="M43.583,13.375c0.339,0,0.625,0.286,0.625,0.625v32c0,0.339-0.286,0.625-0.625,0.625H17.625
			C17.286,46.625,17,46.339,17,46V14c0-0.339,0.286-0.625,0.625-0.625H43.583 M43.583,11H17.625c-1.65,0-3,1.35-3,3v32
			c0,1.65,1.35,3,3,3h25.958c1.65,0,3-1.35,3-3V14C46.583,12.35,45.233,11,43.583,11L43.583,11z"/>
	</g>
	
		<line fill="none" stroke="#FFFFFF" stroke-width="2.375" stroke-linecap="round" stroke-linejoin="round" stroke-miterlimit="10" x1="34.479" y1="18.188" x2="41.916" y2="18.188"/>
	
		<line fill="none" stroke="#FFFFFF" stroke-width="2.375" stroke-linecap="round" stroke-linejoin="round" stroke-miterlimit="10" x1="32" y1="26.104" x2="41.916" y2="26.104"/>
	
		<line fill="none" stroke="#FFFFFF" stroke-width="2.375" stroke-linecap="round" stroke-linejoin="round" stroke-miterlimit="10" x1="20.417" y1="33.604" x2="41.916" y2="33.604"/>
	
		<line fill="none" stroke="#FFFFFF" stroke-width="2.375" stroke-linecap="round" stroke-linejoin="round" stroke-miterlimit="10" x1="20.417" y1="41.521" x2="41.916" y2="41.521"/>
</g>
</svg>
