<?xml version="1.0" encoding="utf-8"?>
<!-- Generator: Adobe Illustrator 16.0.0, SVG Export Plug-In . SVG Version: 6.00 Build 0)  -->
<!DOCTYPE svg PUBLIC "-//W3C//DTD SVG 1.1//EN" "http://www.w3.org/Graphics/SVG/1.1/DTD/svg11.dtd">
<svg version="1.1" id="图层_1" xmlns="http://www.w3.org/2000/svg" xmlns:xlink="http://www.w3.org/1999/xlink" x="0px" y="0px"
	 width="60px" height="60px" viewBox="0 0 60 60" enable-background="new 0 0 60 60" xml:space="preserve">
<circle fill="#0586C0" cx="30" cy="30" r="30"/>
<g>
	<g>
		<path fill="#FFFFFF" d="M25.086,14.375c3.662,0,6.641,3.477,6.641,7.75c0,2.351-0.906,4.55-2.486,6.035l-2.446,2.299L29.776,32
			c3.068,1.587,5.345,4.611,6.292,8.208H14.112c0.946-3.596,3.222-6.619,6.287-8.206l2.98-1.543l-2.446-2.297
			c-1.581-1.485-2.487-3.685-2.487-6.037C18.446,17.852,21.425,14.375,25.086,14.375 M25.086,12c-4.979,0-9.015,4.533-9.015,10.125
			c0,3.121,1.259,5.91,3.236,7.768c-4.392,2.273-7.546,7.04-7.998,12.69H38.87c-0.452-5.652-3.609-10.42-8.003-12.692
			c1.977-1.857,3.234-4.646,3.234-7.766C34.102,16.533,30.064,12,25.086,12L25.086,12z"/>
	</g>
	<g>
		<path fill="#FFFFFF" d="M41.843,24.172c2.222,0,4.028,2.144,4.028,4.778c0,1.461-0.559,2.825-1.532,3.741l-2.056,1.935
			l2.506,1.298c1.801,0.934,3.174,2.653,3.848,4.723h-6.981c-0.355-1.838-1.014-3.57-1.949-5.138l1.702-0.88l-2.061-1.937
			c-0.975-0.916-1.534-2.28-1.534-3.742C37.813,26.315,39.621,24.172,41.843,24.172 M41.843,22.172c-3.33,0-6.029,3.034-6.029,6.778
			c0,2.09,0.842,3.957,2.165,5.2c-0.404,0.209-0.789,0.456-1.16,0.727c1.72,2.08,2.852,4.778,3.094,7.77h11.148
			c-0.303-3.785-2.414-6.976-5.352-8.498c1.321-1.243,2.162-3.109,2.162-5.198C47.871,25.206,45.172,22.172,41.843,22.172
			L41.843,22.172z"/>
	</g>
</g>
</svg>
