<?xml version="1.0" encoding="utf-8"?>
<!-- Generator: Adobe Illustrator 16.0.0, SVG Export Plug-In . SVG Version: 6.00 Build 0)  -->
<!DOCTYPE svg PUBLIC "-//W3C//DTD SVG 1.1//EN" "http://www.w3.org/Graphics/SVG/1.1/DTD/svg11.dtd">
<svg version="1.1" id="图层_1" xmlns="http://www.w3.org/2000/svg" xmlns:xlink="http://www.w3.org/1999/xlink" x="0px" y="0px"
	 width="60px" height="60px" viewBox="0 0 60 60" enable-background="new 0 0 60 60" xml:space="preserve">
<circle fill="#A869AB" cx="30" cy="30" r="30"/>
<g>
	<g>
		<rect x="11" y="44.526" fill="#FFFFFF" width="37.998" height="2.411"/>
		<g>
			<path fill="#FFFFFF" d="M11.029,46.303v-5.091c0-0.55,0.45-1,1-1h0.411c0.55,0,1,0.45,1,1v5.091"/>
		</g>
		<g>
			<path fill="#FFFFFF" d="M18.675,45.002v-5.946c0-0.55,0.45-1,1-1h0.41c0.55,0,1,0.45,1,1v5.946"/>
		</g>
		<g>
			<path fill="#FFFFFF" d="M27.842,44.78V36.01c0-0.55,0.45-1,1-1h0.411c0.55,0,1,0.45,1,1v8.771"/>
		</g>
		<g>
			<path fill="#FFFFFF" d="M37.263,44.812V31.76c0-0.55,0.45-1,1-1h0.411c0.55,0,1,0.45,1,1v13.052"/>
		</g>
		<g>
			<path fill="#FFFFFF" d="M46.589,45.05V28.571c0-0.55,0.45-1,1-1H48c0.55,0,1,0.45,1,1V45.05"/>
		</g>
	</g>
	<path fill="#FCFCFC" d="M43.995,23.314c0.634,0,1.144-0.505,1.144-1.137v-9.115h-9.181c-0.637,0-1.145,0.509-1.145,1.136
		s0.508,1.136,1.145,1.136h5.263L30.638,25.817l-5.815-2.955c-0.273-0.125-0.638-0.347-0.908-0.331
		c-0.305-0.002-0.46,0.096-0.72,0.32l-9.589,10.036c-0.447,0.443-0.39,1.126,0.058,1.567c0.225,0.227,0.404,0.333,0.697,0.333
		s0.641-0.067,0.86-0.295l8.768-9.222l5.817,2.956c0.288,0.168,0.484,0.252,0.875,0.295c0.306,0.005,0.54-0.11,0.75-0.281
		l11.42-11.314v5.251C42.851,22.804,43.363,23.314,43.995,23.314z"/>
</g>
</svg>
