<?xml version="1.0" encoding="utf-8"?>
<!-- Generator: Adobe Illustrator 16.0.0, SVG Export Plug-In . SVG Version: 6.00 Build 0)  -->
<!DOCTYPE svg PUBLIC "-//W3C//DTD SVG 1.1//EN" "http://www.w3.org/Graphics/SVG/1.1/DTD/svg11.dtd">
<svg version="1.1" id="图层_1" xmlns="http://www.w3.org/2000/svg" xmlns:xlink="http://www.w3.org/1999/xlink" x="0px" y="0px"
	 width="60px" height="60px" viewBox="0 0 60 60" enable-background="new 0 0 60 60" xml:space="preserve">
<circle fill="#ED367E" cx="30" cy="30" r="30"/>
<g>
	<g transform="scale(0.1953125, 0.1953125)">
		<path fill="#FCFCFC" d="M146.04,198.499H79.047c-5.84,0-10.567-4.735-10.567-10.57V83.357c0-5.84,4.727-10.567,10.567-10.567
			h124.782c5.845,0,10.57,4.727,10.57,10.567v55.037c0,3.365,2.715,6.08,6.08,6.08s6.08-2.715,6.08-6.08V83.357
			c0-12.527-10.205-22.727-22.73-22.727H79.047c-12.527,0-22.727,10.2-22.727,22.727v104.547c0,12.54,10.2,22.73,22.727,22.73
			h66.992c3.355,0,6.077-2.715,6.077-6.08C152.117,201.189,149.395,198.499,146.04,198.499z M195.969,139.645
			c3.365,0,6.08-2.705,6.08-6.08V84.76h-48.805c-3.375,0-6.08,2.72-6.08,6.08s2.705,6.08,6.08,6.08h27.975l-38.6,38.355
			l-21.772-22.322c-1.14-1.153-2.682-1.817-4.32-1.842c-1.615-0.012-3.185,0.63-4.325,1.792L74.677,150.38
			c-2.375,2.375-2.375,6.237,0,8.61c1.19,1.2,2.732,1.795,4.287,1.795c1.557,0,3.122-0.595,4.3-1.795l33.155-33.135l21.767,22.327
			c1.143,1.152,2.682,1.817,4.322,1.842c1.615,0.025,3.18-0.627,4.32-1.767l43.06-42.81v28.117
			C189.89,136.915,192.605,139.645,195.969,139.645z M240.619,157.91h-23.845H176.02c-5.66,0-10.26,4.585-10.26,10.22v76.46
			c0,5.635,4.6,10.22,10.26,10.22h40.755h23.845c5.66,0,10.26-4.585,10.26-10.22v-23.925v-28.61V168.13
			C250.879,162.495,246.279,157.91,240.619,157.91z M216.774,170.07h21.945v21.985v8.415h-60.8v-30.4H216.774z M238.719,242.649
			h-21.945H177.92v-30.02h60.8v8.035V242.649z"/>
	</g>
</g>
</svg>
