<?xml version="1.0" encoding="utf-8"?>
<!-- Generator: Adobe Illustrator 16.0.0, SVG Export Plug-In . SVG Version: 6.00 Build 0)  -->
<!DOCTYPE svg PUBLIC "-//W3C//DTD SVG 1.1//EN" "http://www.w3.org/Graphics/SVG/1.1/DTD/svg11.dtd">
<svg version="1.1" id="图层_1" xmlns="http://www.w3.org/2000/svg" xmlns:xlink="http://www.w3.org/1999/xlink" x="0px" y="0px"
	 width="36px" height="36px" viewBox="0 0 36 36" enable-background="new 0 0 36 36" xml:space="preserve">
<g>
	<g transform="scale(0.0625, 0.0625)">
		<path fill="#007FDB" d="M206.438,343.625h-82.07v-82.047h82.07V343.625z M330.438,261.578h-82.063v82.047h82.063V261.578z
			 M454.438,261.578h-82.078v82.047h82.078V261.578z M206.438,381.406h-82.07v82.063h82.07V381.406z M330.438,381.406h-82.063
			v82.063h82.063V381.406z M454.438,381.406h-82.078v82.063h82.078V381.406z M485,95.922c0,13.969-11.344,25.313-25.328,25.313
			s-25.313-11.344-25.313-25.313V32.203c0-13.969,11.328-25.313,25.313-25.313S485,18.234,485,32.203V95.922z M142.953,32.086
			c0-13.969-11.328-25.313-25.313-25.313S92.313,18.117,92.313,32.086v63.719c0,13.969,11.344,25.313,25.328,25.313
			s25.313-11.344,25.313-25.313V32.086z M515.594,69.063v25.93c0,30.836-25.094,55.906-55.922,55.906s-55.906-25.07-55.906-55.906
			v-25.93H173.563v25.813c0,30.836-25.094,55.922-55.922,55.922c-30.836,0-55.922-25.086-55.922-55.922V69.063H1v500.156h574V69.063
			H515.594z M519.281,513.5H56.727V203.539h462.555V513.5z"/>
	</g>
</g>
</svg>
