<?xml version="1.0" encoding="utf-8"?>
<!-- Generator: Adobe Illustrator 16.0.0, SVG Export Plug-In . SVG Version: 6.00 Build 0)  -->
<!DOCTYPE svg PUBLIC "-//W3C//DTD SVG 1.1//EN" "http://www.w3.org/Graphics/SVG/1.1/DTD/svg11.dtd">
<svg version="1.1" id="图层_1" xmlns="http://www.w3.org/2000/svg" xmlns:xlink="http://www.w3.org/1999/xlink" x="0px" y="0px"
	 width="60px" height="60px" viewBox="0 0 60 60" enable-background="new 0 0 60 60" xml:space="preserve">
<circle fill="#8FC31F" cx="30" cy="30" r="30"/>
<g>
	<g transform="scale(0.1953125, 0.1953125)">
		<path fill="#FFFFFF" d="M59.912,103.615l90.84,43.827c0.893,0.435,1.86,0.652,2.87,0.652c1.025,0,2.005-0.225,2.935-0.677
			l89.177-44.12c2.37-1.155,3.845-3.542,3.845-6.232c0-2.687-1.475-5.072-3.835-6.215l-89.902-43.815
			c-1.81-0.907-3.99-0.915-5.84-0.015L59.83,91.17c-2.365,1.175-3.817,3.582-3.792,6.282
			C56.072,100.135,57.552,102.5,59.912,103.615L59.912,103.615z M73.612,97.345l79.297-38.84l79.185,38.597l-78.482,38.837
			L73.612,97.345L73.612,97.345z M248.309,195.59l-34.265-16.67l-13.02,6.645l31.535,15.34l-79.025,39.195l-80.43-38.7
			l32.525-15.925l-13.245-6.505L59.33,195.24c-2.367,1.17-3.822,3.575-3.8,6.28c0.033,2.685,1.52,5.045,3.867,6.155l91.295,43.935
			c0.915,0.44,1.885,0.66,2.882,0.66c1.027,0,2.05-0.245,2.927-0.695l89.772-44.53c2.355-1.165,3.815-3.545,3.815-6.215
			c0-1.94-0.77-3.725-2.095-5L248.309,195.59 M59.392,155.147l91.395,43.972c0.85,0.395,1.805,0.605,2.762,0.605
			c1.023,0,2.007-0.225,2.952-0.675l89.797-44.555c2.355-1.16,3.805-3.545,3.79-6.237c-0.01-2.13-0.96-4.082-2.555-5.365l0.13-0.137
			l-21.565-10.477l-1.86-0.862v0.002l-10.29-4.977l-12.925,6.597l31.54,15.337l-79.03,39.195l-80.442-38.7l32.46-15.895L92.6,126.36
			l-33.217,16.327c-2.375,1.14-3.852,3.535-3.852,6.242C55.542,151.622,57.022,154.007,59.392,155.147"/>
	</g>
</g>
</svg>
