<?xml version="1.0" encoding="utf-8"?>
<!-- Generator: Adobe Illustrator 16.0.0, SVG Export Plug-In . SVG Version: 6.00 Build 0)  -->
<!DOCTYPE svg PUBLIC "-//W3C//DTD SVG 1.1//EN" "http://www.w3.org/Graphics/SVG/1.1/DTD/svg11.dtd">
<svg version="1.1" id="图层_1" xmlns="http://www.w3.org/2000/svg" xmlns:xlink="http://www.w3.org/1999/xlink" x="0px" y="0px"
	 width="36px" height="36px" viewBox="0 0 36 36" enable-background="new 0 0 36 36" xml:space="preserve">
<g>
	<g transform="scale(0.1953125, 0.1953125)">
		<path fill="#2CC537" d="M48.045,62.027c0,3.81,3.087,6.897,6.897,6.897c3.812,0,6.902-3.087,6.902-6.897
			c0-3.815-3.09-6.902-6.902-6.902C51.132,55.125,48.045,58.212,48.045,62.027L48.045,62.027z M101.79,97.71
			c0,2.99,2.41,5.395,5.395,5.395c2.99,0,5.41-2.405,5.41-5.395c0-2.985-2.42-5.4-5.41-5.4C104.2,92.31,101.79,94.725,101.79,97.71z
			 M83.245,62.027c0,3.81,3.087,6.897,6.897,6.897c3.812,0,6.902-3.087,6.902-6.897c0-3.815-3.09-6.902-6.902-6.902
			C86.332,55.125,83.245,58.212,83.245,62.027L83.245,62.027z M147.53,10.24H36.787c-14.662,0-26.547,11.925-26.547,26.64v110.61
			c0,14.71,11.885,26.63,26.547,26.63H147.53c14.665,0,26.55-11.92,26.55-26.63V36.88C174.08,22.165,162.195,10.24,147.53,10.24z
			 M71.72,120.035c-6.2,0-11.182-1.265-17.4-2.495l-17.365,8.705l4.97-14.945C29.49,102.62,22.05,91.412,22.05,77.767
			c0-23.635,22.367-42.245,49.67-42.245c24.422,0,45.825,14.872,50.12,34.885c-1.575-0.175-3.175-0.29-4.78-0.29
			c-23.6,0-42.237,17.607-42.237,39.302c0,3.615,0.565,7.1,1.537,10.41C74.822,119.96,73.28,120.035,71.72,120.035z M144.995,137.43
			l3.735,12.41l-13.63-7.46c-4.965,1.25-9.955,2.49-14.9,2.49c-23.63,0-42.25-16.145-42.25-36.04c0-19.86,18.62-36.045,42.25-36.045
			c22.32,0,42.19,16.185,42.19,36.045C162.39,120.035,154.965,129.955,144.995,137.43z M128.855,97.71
			c0,2.99,2.415,5.395,5.405,5.395c2.98,0,5.395-2.405,5.395-5.395c0-2.985-2.415-5.4-5.395-5.4
			C131.27,92.31,128.855,94.725,128.855,97.71z"/>
	</g>
</g>
</svg>
