<?xml version="1.0" encoding="utf-8"?>
<!-- Generator: Adobe Illustrator 16.0.0, SVG Export Plug-In . SVG Version: 6.00 Build 0)  -->
<!DOCTYPE svg PUBLIC "-//W3C//DTD SVG 1.1//EN" "http://www.w3.org/Graphics/SVG/1.1/DTD/svg11.dtd">
<svg version="1.1" id="图层_1" xmlns="http://www.w3.org/2000/svg" xmlns:xlink="http://www.w3.org/1999/xlink" x="0px" y="0px"
	 width="36px" height="36px" viewBox="0 0 36 36" enable-background="new 0 0 36 36" xml:space="preserve">
<g>
	<g transform="scale(0.1953125, 0.1953125)">
		<path fill="#F28F1A" d="M0,62.667v88.472h154.825V62.667H0z M92.235,112.155v4.975H79.497v17.185h-7.762V117.13H58.86v-4.975
			h12.875v-0.13L54.95,85.285h9.157l8.757,15.525c1.26,2.525,1.987,4.375,2.982,6.7h0.265c0.995-2.125,1.99-4.445,3.25-6.83
			l8.757-15.395h9.29l-17.912,26.74v0.13H92.235z M16.587,55.292H162.2v77.417h7.37V47.92H16.587V55.292z M31.33,33.18v7.37h145.615
			v77.415h7.375V33.18H31.33L31.33,33.18z"/>
	</g>
</g>
</svg>
