<?xml version="1.0" encoding="utf-8"?>
<!-- Generator: Adobe Illustrator 16.0.0, SVG Export Plug-In . SVG Version: 6.00 Build 0)  -->
<!DOCTYPE svg PUBLIC "-//W3C//DTD SVG 1.1//EN" "http://www.w3.org/Graphics/SVG/1.1/DTD/svg11.dtd">
<svg version="1.1" id="图层_1" xmlns="http://www.w3.org/2000/svg" xmlns:xlink="http://www.w3.org/1999/xlink" x="0px" y="0px"
	 width="60px" height="60px" viewBox="0 0 60 60" enable-background="new 0 0 60 60" xml:space="preserve">
<circle fill="#FF8680" cx="30" cy="30" r="30"/>
<g>
	<g>
		<path fill="none" stroke="#FFFFFF" stroke-width="2.375" stroke-miterlimit="10" d="M38.905,46.976
			c-1.047,1.275-2.092,2.319-2.321,2.319s-1.768,0-3.418,0H18.731c-1.65,0-3-1.35-3-3v-31.67c0-1.65,1.35-3,3-3h23.407
			c1.65,0,3,1.35,3,3v20.961c0,1.65,0,3.178,0,3.396c0,0.218-0.856,1.439-1.903,2.715L38.905,46.976z"/>
	</g>
	<g>
		<g>
			<path fill="#FFFFFF" d="M22.51,22.639c5.168,0,10.336,0,15.504,0c1.612,0,1.612-2.5,0-2.5c-5.168,0-10.336,0-15.504,0
				C20.897,20.139,20.897,22.639,22.51,22.639L22.51,22.639z"/>
		</g>
	</g>
	<g>
		<g>
			<path fill="#FFFFFF" d="M22.51,31.018c5.168,0,10.336,0,15.504,0c1.612,0,1.612-2.5,0-2.5c-5.168,0-10.336,0-15.504,0
				C20.897,28.518,20.897,31.018,22.51,31.018L22.51,31.018z"/>
		</g>
	</g>
	<g>
		<g>
			<path fill="#FFFFFF" d="M22.51,40.979c3.035,0,6.07,0,9.104,0c1.612,0,1.612-2.5,0-2.5c-3.035,0-6.07,0-9.104,0
				C20.897,38.479,20.897,40.979,22.51,40.979L22.51,40.979z"/>
		</g>
	</g>
	<g>
		<path fill="#FFFFFF" d="M37.746,48.081c-0.699,0.85-1.355,1.544-1.459,1.544c-0.103,0-0.187-0.9-0.187-2v-7.281c0-1.1,0.9-2,2-2
			h5.434c1.1,0,2,0.064,2,0.143s-0.572,0.837-1.271,1.687L37.746,48.081z"/>
		<path fill="none" stroke="#FFFFFF" stroke-miterlimit="10" d="M37.746,48.081c-0.699,0.85-1.355,1.544-1.459,1.544
			c-0.103,0-0.187-0.9-0.187-2v-7.281c0-1.1,0.9-2,2-2h5.434c1.1,0,2,0.064,2,0.143s-0.572,0.837-1.271,1.687L37.746,48.081z"/>
	</g>
	
		<text transform="matrix(0.6357 -0.772 0.772 0.6357 38.0762 47.8057)" fill="#FF8680" font-family="'MicrosoftYaHei-Bold'" font-size="3.8213">SALE</text>
</g>
</svg>
