<?xml version="1.0" encoding="utf-8"?>
<!-- Generator: Adobe Illustrator 16.0.0, SVG Export Plug-In . SVG Version: 6.00 Build 0)  -->
<!DOCTYPE svg PUBLIC "-//W3C//DTD SVG 1.1//EN" "http://www.w3.org/Graphics/SVG/1.1/DTD/svg11.dtd">
<svg version="1.1" id="图层_1" xmlns="http://www.w3.org/2000/svg" xmlns:xlink="http://www.w3.org/1999/xlink" x="0px" y="0px"
	 width="36px" height="36px" viewBox="0 0 36 36" enable-background="new 0 0 36 36" xml:space="preserve">
<g>
	<g transform="scale(0.1953125, 0.1953125)">
		<path fill="#2DB8B4" d="M34.455,34.592c-5.357,0.697-10.667,5.09-12.402,10.27C20.972,48.06,0.08,138.74,0.007,140.47
			c-0.16,4.715,2.512,8.24,6.952,9.14c1.655,0.345,141.785,0.355,143.55,0.03c5.01-0.965,9.745-4.965,11.555-9.775
			c0.69-1.87,22.15-94.352,22.235-95.89c0.255-4.352-2.27-7.92-6.54-9.207C176.8,34.487,36.687,34.292,34.455,34.592L34.455,34.592z
			 M32.825,64.067c0,0.103-0.132,0.65-0.295,1.215c-2.217,7.572-4.422,17.745-4.145,19.04c0.815,3.82,6.277,3.51,8.275-0.46
			c0.56-1.088,4.747-18.772,4.747-20.015c0-0.063,6.557,0.028,6.617,0.09c0.012,0.013-0.033,0.26-0.12,0.542
			c-0.075,0.285-1.142,4.397-2.352,9.16c-2.605,10.287-2.947,11.34-4.307,13.337c-4.467,6.597-19.34,6.39-20.555-0.287
			c-0.265-1.495,2.935-18.2,4.352-22.74C25.117,63.71,32.825,63.83,32.825,64.067L32.825,64.067z M131.885,64.067
			c4.455,0.978,5.825,4.572,3.765,9.867c-2.075,5.315-6.395,7.695-14.045,7.695c-2.31,0-2.13-0.35-3.625,6.882
			c-0.28,1.377-0.545,2.65-0.59,2.812c-0.105,0.47-6.985,0.47-6.905,0c5.81-24.932,6.27-27.082,6.315-27.257l0.075-0.33l6.99,0.048
			C129.465,63.83,131.06,63.892,131.885,64.067L131.885,64.067z M72.125,73.657c0.935,0.235,1.687,0.978,1.687,1.643
			c0,2.407-4.952,4.067-6.76,2.262C65.2,75.712,68.93,72.855,72.125,73.657z M54.932,75.492c0,0.232-0.06,0.622-0.12,0.842
			l-0.115,0.4l1.167-0.595c3.08-1.55,6.095-1.285,7.09,0.655c0.607,1.155,0.53,1.85-1.022,9.057
			c-0.282,1.295-0.64,3.032-0.767,3.842c-0.345,1.952-0.092,1.817-3.552,1.882c-2.962,0.045-2.962,0.045-2.927-0.28
			c0.013-0.165,0.368-1.765,0.767-3.555c1.58-6.912,1.61-7.882,0.248-7.882c-0.75,0-1.832,0.458-1.907,0.795
			c-0.15,0.668-1.907,9.102-2.07,9.93l-0.183,0.887l-3.03,0.105c-3.682,0.115-3.415,0.412-2.602-2.945
			c1.035-4.267,1.657-7.28,2.072-9.945c0.455-2.932,0.147-2.605,2.915-3.05c1.255-0.19,2.54-0.415,2.87-0.505
			C54.73,74.917,54.95,74.97,54.932,75.492z M100.95,75.417c0,0.205-0.06,0.595-0.125,0.842l-0.115,0.49l1.17-0.592
			c6.04-3.122,8.36-0.548,6.59,7.327c-0.41,1.785-0.92,4.245-1.145,5.472c-0.215,1.215-0.485,2.295-0.58,2.395
			c-0.335,0.34-6.08,0.327-6.045-0.028c0.01-0.162,0.355-1.735,0.765-3.475c1.63-7.06,1.65-7.977,0.225-7.99
			c-1.14,0-1.78,0.38-1.97,1.222c-0.255,1.052-1.72,8.082-1.97,9.352l-0.19,1.037l-3.03,0.085c-3.7,0.11-3.402,0.478-2.53-3.132
			c0.927-3.835,1.682-7.487,2.088-10.125c0.37-2.5,0.097-2.217,2.512-2.587c1.095-0.173,2.39-0.397,2.885-0.518
			C100.71,74.925,100.96,74.957,100.95,75.417L100.95,75.417z M159.84,75.252c0.36,5.95,0.475,7.685,0.53,7.755
			c0.045,0.06,0.89-1.447,1.855-3.372c1.97-3.89,1.54-3.467,3.7-3.772c0.575-0.09,1.73-0.297,2.57-0.46
			c2.12-0.432,2.14-0.575-0.32,3.655c-3.31,5.722-7.895,13.78-9.505,16.707c-4.92,9.025-4.895,8.98-9.125,9.07l-2.48,0.055
			l0.21-0.72c0.115-0.39,0.365-1.195,0.54-1.795l0.325-1.06h0.765c0.89,0,1.055-0.15,1.88-1.555c0.3-0.49,0.74-1.26,1.005-1.705
			c0.285-0.44,1.22-2.055,2.075-3.58l1.585-2.75l-0.415-3.615c-0.48-4.195-1.1-9.067-1.35-10.592
			c-0.215-1.332-0.215-1.315,1.525-1.585c0.77-0.115,2.005-0.34,2.72-0.502C159.49,75.107,159.74,75.08,159.84,75.252L159.84,75.252
			z M86.78,75.43c7.49,1.377,4.852,14.382-3.272,16.192c-5.505,1.222-9.28-0.875-9.28-5.18C74.212,78.985,79.735,74.13,86.78,75.43z
			 M142.54,75.772c0.415,0.177,0.945,0.575,1.22,0.872c0.44,0.502,0.475,0.518,0.52,0.207c0.055-0.387,0.01-0.368,3.87-1.007
			c3.14-0.505,3.005-0.513,2.785,0.432c-1.3,5.442-2.35,10.177-2.765,12.487c-0.64,3.457-0.16,3.09-3.935,3.047l-3.17-0.047
			l0.045-0.412c0.045-0.397-0.16-0.548-0.345-0.253c-1.095,1.762-6.295,1.025-7.765-1.095
			C129.305,84.62,136.985,73.172,142.54,75.772L142.54,75.772z M72.955,78.615c0.042,0.048,0,0.46-0.12,0.917
			c-0.737,3.105-2.16,9.36-2.38,10.53l-0.265,1.41l-3.18,0.085c-3.822,0.11-3.582,0.285-2.827-1.997
			c0.708-2.2,1.347-4.987,1.787-7.857c0.372-2.465-0.012-2.112,2.767-2.527c1.287-0.19,2.605-0.415,2.927-0.487
			C72.39,78.525,72.852,78.495,72.955,78.615z M89.94,98.655c0,0.085-0.19,0.5-0.442,0.92c-0.233,0.455-0.44,0.85-0.44,0.895
			c5.725,0.1,5.932,0.12,5.86,0.35l-1.027,3.445h-8.3l-0.452,0.435c-1.037,0.99-6.737,2.235-6.737,1.465l1.052-3.515h0.767
			c1.32,0,1.657-0.29,2.815-2.34l1.007-1.815C88.895,98.495,89.94,98.56,89.94,98.655L89.94,98.655z M102.665,98.68
			c0,0.105-0.125,0.62-0.29,1.155c-0.16,0.525-0.295,1.005-0.295,1.065c0,0.045,0.485-0.24,1.08-0.635
			c2.14-1.425,3.93-1.77,9.405-1.77c2.175,0,3.995,0.035,4.04,0.075c0.135,0.155-3.105,10.685-3.58,11.625
			c-0.635,1.255-1.315,1.95-2.395,2.455l-0.935,0.43l-5.545,0.075l-5.555,0.07l-0.99,3.26c-1.922,6.255-1.98,5.84,0.855,5.555
			c2.27-0.22,2.125-0.43,1.42,1.93l-0.585,1.985l-2.857,0.04c-6.12,0.1-6.92-0.27-6.255-2.84c0.322-1.245,7.277-24.34,7.377-24.52
			C97.715,98.41,102.665,98.455,102.665,98.68L102.665,98.68z M128.115,98.635c0,0.07-0.1,0.41-0.22,0.755
			c-0.33,0.93-0.33,0.93,0.935,0.295c1.655-0.845,5.515-1.19,13.465-1.19h2.545v1.175c0,1.38,0.07,1.47,1.305,1.61l0.88,0.105
			l-0.535,1.73l-0.52,1.75l-1.705,0.025c-4.445,0.09-5.185-0.335-5.215-2.99v-1.25l-0.3,0.92l-0.29,0.93h-0.945
			c-0.53,0-0.965,0.025-0.965,0.07s-4.715,15.76-5.41,18.005c-0.08,0.23,0.005,0.275,0.58,0.275c0.82,0,0.85,0.04,0.6,0.76
			c-0.3,0.865-0.3,0.865,0.725,0.865c0.67,0,1.11-0.09,1.58-0.34c0.7-0.34,0.635-0.28,3.75-4.66l1.285-1.81h-2.635
			c-3.15,0-2.915,0.175-2.34-1.75l0.48-1.585l3.19-0.035l3.18-0.035c0.61-2.025,0.795-2.665,0.795-2.71
			c0-0.055-1.395-0.115-3.09-0.125l-3.08-0.045l0.525-1.745l0.505-1.735h8.71c4.78,0,8.7,0.045,8.7,0.105
			c0,0.075-0.22,0.85-0.485,1.75l-0.495,1.625l-2.94,0.07l-2.925,0.075c-0.505,1.49-0.7,2.11-0.76,2.32l-0.09,0.415h2.8
			c3.295,0,3.08-0.14,2.465,1.795l-0.465,1.535l-3.195,0.045l-3.215,0.035l-0.455,0.585l-0.46,0.575l1.225,0.05l1.23,0.045
			l0.37,2.34c0.415,2.635,0.395,2.615,1.67,2.615c1,0,0.975-0.205,0.3,2.095l-0.565,1.9h-1.82c-3.215,0-3.805-0.52-4.32-3.755
			l-0.325-2.175l-1.17,1.595c-3.185,4.38-3.365,4.495-7.49,4.495c-2.605,0-2.57,0.005-2.26-0.805c0.13-0.39,0.13-0.39-0.645-0.39
			c-0.78,0-0.78,0-0.925,0.55l-0.135,0.565l-2.71,0.04l-2.705,0.04l0.085-0.335c0.27-0.945,0.805-0.86-5.175-0.86
			c-5.095,0-5.415-0.015-5.345-0.265l0.53-1.705c0.55-1.79,0.505-1.73,1.115-1.73c0.46,0,0.505-0.045,0.725-0.705
			c4.605-15.26,6.05-20.035,6.245-20.72l0.37-1.22h2.73C126.89,98.495,128.115,98.56,128.115,98.635L128.115,98.635z M93.747,106.97
			l-1.037,3.375h-5.86c-0.59,1.89-0.795,2.555-0.842,2.69c-0.075,0.25,0.132,0.26,2.887,0.26c1.637,0,2.97,0.065,2.97,0.135
			c0,0.065-0.053,0.315-0.145,0.55c-0.08,0.235-0.313,1.01-0.52,1.72l-0.387,1.295h-6.007l-0.677,2.29
			c-1.005,3.29-0.9,3.4,2.825,2.86c1.537-0.2,1.482-0.335,0.8,1.9l-0.575,1.91h-4.055c-6.347,0-6.465-0.15-4.797-5.68
			c0.535-1.74,0.965-3.19,0.965-3.215c0-0.03-0.725-0.065-1.63-0.065c-0.885,0-1.622-0.045-1.622-0.09
			c0.705-2.42,0.945-3.205,0.972-3.355c0.075-0.22,0.283-0.255,1.762-0.255h1.67l0.812-2.96h-1.577
			c-1.188,0-1.572-0.035-1.572-0.185c0-0.195,0.875-3.055,0.99-3.26C79.217,106.68,93.837,106.76,93.747,106.97L93.747,106.97z
			 M112.515,114c-0.045,0.145-0.17,0.735-0.285,1.295c-0.565,2.71-1.33,3.32-4.495,3.495c-1.105,0.06-2.02,0.15-2.075,0.195
			c-0.24,0.255-0.215,2.6,0.035,2.985l0.255,0.39l1.905-0.11c1.055-0.05,1.92-0.085,1.92-0.05c0,0.16-1.045,3.56-1.13,3.705
			c-0.15,0.245-6.14,0.065-6.925-0.205c-1.2-0.4-1.185-0.265-1.035-6.365l0.135-5.37l2.48-0.04l2.475-0.035v2.07h0.955
			c1.1,0,1.19-0.09,1.63-1.445l0.25-0.77h1.99C112.435,113.745,112.6,113.755,112.515,114L112.515,114z M121.665,72.505l-1.05,4.617
			l1.46,0.04c7.435,0.207,10.59-8.402,3.305-8.995c-1.145-0.092-2.205-0.195-2.37-0.225
			C122.735,67.887,122.645,68.225,121.665,72.505L121.665,72.505z M83.047,79.117c-1.882,0.755-3.565,7.737-2.147,8.83
			c1.067,0.83,2.607-0.547,3.345-2.985C85.61,80.415,85.162,78.255,83.047,79.117z M140.845,79.59
			c-1.935,0.98-3.435,7.845-1.89,8.64c1.96,1.025,4.405-2.63,4.405-6.612C143.36,79.722,142.295,78.87,140.845,79.59L140.845,79.59z
			 M101.7,102.675l-0.51,1.73c-0.275,0.845-0.505,1.63-0.55,1.735c-0.045,0.115,0.475-0.09,1.15-0.45c1.9-1,2.525-1.135,5.345-1.22
			l2.465-0.09c0.36-1.2,0.46-1.635,0.46-1.72C110.06,102.405,101.79,102.44,101.7,102.675L101.7,102.675z M99.995,108.22l-0.42,1.53
			l8.32-0.07l0.53-1.56C101.895,108.12,99.995,108.165,99.995,108.22z M126.325,104.72c-0.365,1.215-0.63,2.215-0.585,2.215
			c0.035,0,0.585-0.195,1.2-0.425c0.6-0.245,1.61-0.505,2.21-0.595c0.61-0.11,1.12-0.19,1.13-0.21c0.04-0.04,0.95-3.01,0.95-3.12
			c0-0.045-0.95-0.085-2.115-0.085h-2.125L126.325,104.72z M124.82,109.705c-0.035,0.075-0.36,1.08-0.7,2.255
			c-0.345,1.195-0.65,2.2-0.675,2.245c-0.04,0.055,0.465-0.135,1.135-0.415c0.655-0.285,1.67-0.61,2.265-0.71
			c1.305-0.225,1.36-0.255,1.465-0.775c0.06-0.23,0.265-0.925,0.46-1.565l0.355-1.145h-2.115
			C125.835,109.595,124.845,109.64,124.82,109.705L124.82,109.705z M121.455,120.875l4.24,0.115c0.855-2.9,1.15-3.835,1.195-3.93
			l-4.225-0.205L121.455,120.875z"/>
	</g>
</g>
</svg>
