<?xml version="1.0" encoding="utf-8"?>
<!-- Generator: Adobe Illustrator 16.0.0, SVG Export Plug-In . SVG Version: 6.00 Build 0)  -->
<!DOCTYPE svg PUBLIC "-//W3C//DTD SVG 1.1//EN" "http://www.w3.org/Graphics/SVG/1.1/DTD/svg11.dtd">
<svg version="1.1" id="图层_1" xmlns="http://www.w3.org/2000/svg" xmlns:xlink="http://www.w3.org/1999/xlink" x="0px" y="0px"
	 width="36px" height="36px" viewBox="0 0 36 36" enable-background="new 0 0 36 36" xml:space="preserve">
<g>
	<g transform="scale(0.1953125, 0.1953125)">
		<path fill="#007FDB" d="M58.962,99.36c14.455,0,25.365,5.94,36.602,10.48c-11.832,14.39-23.682,25.61-36.602,25.61
			c-11.42,0-30.35-3.9-30.35-17.82C28.632,105.51,45.39,99.36,58.962,99.36L58.962,99.36z M174.08,24.59v135.14
			c0,7.89-6.46,14.35-14.35,14.35H24.592c-7.892,0-14.352-6.46-14.352-14.35V24.59c0-7.892,6.46-14.35,14.352-14.35H159.73
			C167.62,10.24,174.08,16.697,174.08,24.59L174.08,24.59z M174.02,120.09c-11.42-2.64-33.3-10.58-54.135-17.84
			c4.51-7.795,8.26-16.547,10.975-26.202l0.505-1.915c0.515-1.942,0.985-4.63,1.415-6.64h-32.6v-8.245h40.99v-8.16H100.2V34.58
			H83.732v16.507H42.785v8.16h40.947v8.245H50.987v8.16h61.147c-1.435,7.4-4.19,14.847-7.77,21.307
			c-2.855-0.94-28.795-8.57-45.712-8.57c-13.53,0-35.985,10.35-35.985,29.24c0,18.62,12.92,29.1,35.985,29.1
			c22.15,0,38.447-11.07,51.637-30.7c25.095,10.93,48.41,22.99,63.73,29.9V120.09L174.02,120.09z"/>
	</g>
</g>
</svg>
